<svg xmlns="http://www.w3.org/2000/svg" xmlns:xlink="http://www.w3.org/1999/xlink" width="394.83" height="128.24" viewBox="0 0 394.83 128.24"><defs><clipPath id="a" transform="translate(2.9 -0.01)"><path d="M26,121.29l0-.21Q-5.05,101.55,1.41,24.63,35.27,39.87,55.56,60.68q20.31-20.8,54.16-36,6.47,76.94-24.63,96.45l0,.21-.81.27q-11.76,7-28.75,6-17,1-28.74-6l-.81-.27m56.78-12.7q21.4-16.65,16.49-66A105.61,105.61,0,0,0,63.36,69.49,101.3,101.3,0,0,1,82.79,108.59Zm-54.45,0q-21.4-16.65-16.49-66A105.61,105.61,0,0,1,47.77,69.49,101.3,101.3,0,0,0,28.34,108.59Zm27.22,8.46a52.65,52.65,0,0,1-17.42-3A146.68,146.68,0,0,1,55.56,79.5,146.32,146.32,0,0,1,73,114,52.66,52.66,0,0,1,55.56,117.05Z" fill="none" clip-rule="evenodd"/></clipPath><clipPath id="b" transform="translate(2.9 -0.01)"><path d="M56.18,0A20.75,20.75,0,1,1,35.43,20.76,20.75,20.75,0,0,1,56.18,0" fill="none" clip-rule="evenodd"/></clipPath></defs><title>logo-01</title><path d="M133.17,98.58h4.62L154,76.29,138.17,52.64h-4.62V49.15h18.32v3.49h-5.7l12.2,18.72h.3l12.78-18.72h-5.08V49.15h15v3.49h-4.62L160.84,74.55l16.24,24h4.62V102H163.34V98.58H169l-12.47-19h-.31l-13.09,19h5.09v3.49H133.17Z" transform="translate(2.9 -0.01)" fill="#051818"/><path d="M203.56,103a18.81,18.81,0,0,1-7.66-1.48,15.77,15.77,0,0,1-5.66-4.17,18.6,18.6,0,0,1-3.54-6.45,26.41,26.41,0,0,1-1.23-8.37,24.81,24.81,0,0,1,1.35-8.5,18.3,18.3,0,0,1,3.81-6.44,16.67,16.67,0,0,1,5.89-4.09A19.47,19.47,0,0,1,204.1,62q6.24,0,9.89,2.61a7.92,7.92,0,0,1,3.66,6.64,5.41,5.41,0,0,1-1.31,3.81,4.59,4.59,0,0,1-3.5,1.36,4.41,4.41,0,0,1-3.5-1.35A5.17,5.17,0,0,1,209,69a5.43,5.43,0,0,1,2.38-1.88v-.23a8,8,0,0,0-2.58-.9,22.39,22.39,0,0,0-4-.3,12.24,12.24,0,0,0-5,1A11.15,11.15,0,0,0,196,69.45a13.2,13.2,0,0,0-2.54,4.16,13.88,13.88,0,0,0-.92,5.18v5.6a17.62,17.62,0,0,0,.85,5.58,12.53,12.53,0,0,0,2.43,4.35,10.63,10.63,0,0,0,3.77,2.8,11.92,11.92,0,0,0,5,1,12.45,12.45,0,0,0,7.39-1.93,14.35,14.35,0,0,0,4.32-5l2.46,1.59a16.25,16.25,0,0,1-2,3.83,15.27,15.27,0,0,1-3.16,3.26,15.56,15.56,0,0,1-4.35,2.27A17.14,17.14,0,0,1,203.56,103Z" transform="translate(2.9 -0.01)" fill="#051818"/><path d="M242.59,103a18.9,18.9,0,0,1-7.47-1.44,15.84,15.84,0,0,1-5.78-4.12,18.93,18.93,0,0,1-3.7-6.44,27.76,27.76,0,0,1,0-16.87,18.94,18.94,0,0,1,3.7-6.48,16,16,0,0,1,5.77-4.13,20.07,20.07,0,0,1,14.93,0,16.15,16.15,0,0,1,5.78,4.13,19.08,19.08,0,0,1,3.69,6.48,27.91,27.91,0,0,1,0,16.87,19.07,19.07,0,0,1-3.69,6.44,16.06,16.06,0,0,1-5.78,4.14A18.88,18.88,0,0,1,242.59,103Zm0-3.64a12.1,12.1,0,0,0,5-1,9.36,9.36,0,0,0,3.47-2.67,11.58,11.58,0,0,0,2-4,19.19,19.19,0,0,0,.65-5.06V78.39a19.19,19.19,0,0,0-.65-5.06,12,12,0,0,0-2-4,9.06,9.06,0,0,0-3.47-2.66,13.5,13.5,0,0,0-10,0,9.09,9.09,0,0,0-3.42,2.66,11.24,11.24,0,0,0-2,4,18,18,0,0,0-.66,5.06v8.23a17.68,17.68,0,0,0,.66,5.06,11.24,11.24,0,0,0,2,4,9.22,9.22,0,0,0,3.42,2.67,12.08,12.08,0,0,0,5,1Z" transform="translate(2.9 -0.01)" fill="#051818"/><path d="M280.61,103c-3.7,0-6.58-1-8.66-2.85a10,10,0,0,1-3.11-7.77,12.43,12.43,0,0,1,.92-5,8.25,8.25,0,0,1,3-3.61,15.83,15.83,0,0,1,5.5-2.19,38,38,0,0,1,8.24-.76h5.67v-5.7c0-3.09-.76-5.46-2.27-7.09s-3.79-2.47-6.82-2.47a18.24,18.24,0,0,0-3.69.35,9.26,9.26,0,0,0-2.77.94V67a6.56,6.56,0,0,1,1.69,1.37,3.76,3.76,0,0,1,.81,2.58,4,4,0,0,1-1.15,3,4.8,4.8,0,0,1-6.12,0,4.21,4.21,0,0,1-1.2-3.3,5.78,5.78,0,0,1,1-3.22,9.3,9.3,0,0,1,2.85-2.77,15.18,15.18,0,0,1,4.58-1.93,24.39,24.39,0,0,1,6.2-.72q6.24,0,9.74,3.18t3.5,9V98.81h5.79v2.65a8.1,8.1,0,0,1-2.27,1.06,10.48,10.48,0,0,1-3.19.46,5.7,5.7,0,0,1-6.23-5.11,4.18,4.18,0,0,1,0-1v-.54h-.38a12.71,12.71,0,0,1-1.43,2.51,8.83,8.83,0,0,1-2.29,2.15,12.23,12.23,0,0,1-3.35,1.48A16.33,16.33,0,0,1,280.61,103Zm2.7-4.17A10.66,10.66,0,0,0,289.62,97a6.6,6.6,0,0,0,2.62-5.73V83.87h-5a27.06,27.06,0,0,0-5.54.49,9.65,9.65,0,0,0-3.53,1.44,5.63,5.63,0,0,0-1.89,2.32,8,8,0,0,0-.57,3.18v1.59a5.12,5.12,0,0,0,2,4.4,9.15,9.15,0,0,0,5.64,1.52Z" transform="translate(2.9 -0.01)" fill="#051818"/><path d="M328.49,103a19,19,0,0,1-7.66-1.48,15.71,15.71,0,0,1-5.66-4.18,18.71,18.71,0,0,1-3.55-6.45,26.41,26.41,0,0,1-1.23-8.37,24.81,24.81,0,0,1,1.35-8.5,18.3,18.3,0,0,1,3.81-6.44,16.67,16.67,0,0,1,5.89-4.09A19.47,19.47,0,0,1,329,62q6.24,0,9.89,2.61a7.92,7.92,0,0,1,3.66,6.64,5.43,5.43,0,0,1-1.24,3.81,4.59,4.59,0,0,1-3.5,1.36,4.38,4.38,0,0,1-3.54-1.35A5.24,5.24,0,0,1,334,69a5.49,5.49,0,0,1,2.35-1.88v-.23a7.88,7.88,0,0,0-2.57-.9,22.94,22.94,0,0,0-4.05-.3,12.24,12.24,0,0,0-5,1,11.15,11.15,0,0,0-3.89,2.76,13,13,0,0,0-2.49,4.14,14.08,14.08,0,0,0-.92,5.18v5.6a17.36,17.36,0,0,0,.84,5.63,12.53,12.53,0,0,0,2.43,4.35,10.63,10.63,0,0,0,3.77,2.8,11.92,11.92,0,0,0,5,1,12.45,12.45,0,0,0,7.39-1.93,14.32,14.32,0,0,0,4.31-5l2.46,1.59a16.25,16.25,0,0,1-2,3.83,14.38,14.38,0,0,1-3.16,3.26,15.56,15.56,0,0,1-4.35,2.27A17,17,0,0,1,328.49,103Z" transform="translate(2.9 -0.01)" fill="#051818"/><path d="M349.28,98.58H355V50.29l-5.69-1V46.65l12-2.2V68.78h.31a10.34,10.34,0,0,1,3.75-4.54,12.45,12.45,0,0,1,3.3-1.6,14.06,14.06,0,0,1,4.28-.6q7.14,0,10.24,3.67t3.07,11V98.58h5.7v3.49h-17.7V98.58h5.69V77.28c0-3.69-.74-6.44-2.23-8.23s-3.85-2.69-7.08-2.69a12.58,12.58,0,0,0-3.35.45,9,9,0,0,0-3,1.44,7.41,7.41,0,0,0-2.16,2.43,6.87,6.87,0,0,0-.81,3.41V98.58H367v3.49h-17.7Z" transform="translate(2.9 -0.01)" fill="#051818"/><g clip-path="url(#a)"><rect y="24.62" width="116.94" height="103.62" fill="#051818"/></g><g clip-path="url(#b)"><rect x="38.33" width="41.5" height="41.5" fill="#e8b237"/></g></svg>